<svg width="31" height="31" viewBox="0 0 31 31" fill="none" xmlns="http://www.w3.org/2000/svg">
<g clip-path="url(#clip0)">
<path d="M14.9876 25.7498C14.9735 24.1701 13.6816 22.901 12.1022 22.915C10.5225 22.9291 9.2534 24.221 9.26746 25.8004C9.28152 27.3801 10.5734 28.6492 12.1531 28.6352C13.7317 28.6194 14.9999 27.3286 14.9876 25.7498ZM10.2819 25.7917C10.2728 24.7721 11.0917 23.9386 12.1112 23.9295C13.1305 23.9204 13.9641 24.7393 13.9731 25.7585C13.9822 26.7781 13.1634 27.6116 12.1441 27.6207C11.1251 27.6287 10.2921 26.8103 10.2819 25.7917Z" fill="#F2ECFF"/>
<path d="M22.7437 28.5409C24.3234 28.5271 25.5925 27.2352 25.5785 25.6555C25.5647 24.0758 24.2728 22.8067 22.6931 22.8208C21.1134 22.8348 19.8443 24.1267 19.8583 25.7064C19.8744 27.285 21.1649 28.553 22.7437 28.5409ZM22.7018 23.8352C23.7211 23.8261 24.555 24.645 24.564 25.6643C24.5734 26.6835 23.7542 27.5174 22.735 27.5264C21.7157 27.5355 20.8819 26.7167 20.8728 25.6974C20.8649 24.6787 21.6832 23.8457 22.7018 23.8352Z" fill="#F2ECFF"/>
<path d="M0.604907 1.37559L3.69891 1.34805C4.717 1.33502 5.59171 2.0686 5.75578 3.07374L8.34272 18.5231C8.58732 20.0212 9.89126 21.115 11.4092 21.0955L26.5483 20.9608C26.8283 20.9583 27.0535 20.729 27.0511 20.449C27.0486 20.1688 26.8192 19.9438 26.5393 19.9463L11.4002 20.0811C10.3821 20.0941 9.50736 19.3602 9.3433 18.3554L8.90352 15.7287L24.4086 15.5907C25.7214 15.5785 26.8824 14.7365 27.3016 13.4926L30.1044 5.1646C30.157 5.00901 30.1309 4.8377 30.0346 4.70466C29.938 4.57191 29.7833 4.49375 29.6192 4.49521L7.05593 4.69605L6.75636 2.90603C6.51176 1.40793 5.20782 0.314143 3.68988 0.333599L0.595877 0.36114C0.315659 0.363634 0.090677 0.592943 0.0931688 0.872878C0.0956631 1.1531 0.324689 1.37808 0.604907 1.37559ZM28.9155 5.51628L26.3403 13.1688C26.059 14.0033 25.2802 14.5681 24.3996 14.5763L8.73372 14.7157L7.22545 5.70907L28.9155 5.51628Z" fill="#F2ECFF"/>
</g>
<defs>
<clipPath id="clip0">
<rect width="30" height="30" fill="white" transform="translate(0.0886536 0.364563) rotate(-0.509999)"/>
</clipPath>
</defs>
</svg>
