<svg width="50" height="50" viewBox="0 0 50 50" fill="none" xmlns="http://www.w3.org/2000/svg">
<path d="M11.8164 25C11.8164 32.2694 17.7306 38.1836 25 38.1836C32.2694 38.1836 38.1836 32.2694 38.1836 25C38.1836 17.7306 32.2694 11.8164 25 11.8164C17.7306 11.8164 11.8164 17.7306 11.8164 25ZM25 14.7461C30.654 14.7461 35.2539 19.346 35.2539 25C35.2539 30.654 30.654 35.2539 25 35.2539C19.346 35.2539 14.7461 30.654 14.7461 25C14.7461 19.346 19.346 14.7461 25 14.7461Z" fill="#2F3062"/>
<path d="M36.3938 36.3938C35.8218 36.9659 35.8218 37.8934 36.3938 38.4654L43.4667 45.5383C44.0387 46.1104 44.9662 46.1105 45.5383 45.5383C46.1104 44.9662 46.1104 44.0388 45.5383 43.4667L38.4654 36.3938C37.8934 35.8217 36.9658 35.8217 36.3938 36.3938Z" fill="#2F3062"/>
<path d="M6.5333 4.46172C5.96133 3.88965 5.03379 3.88965 4.46172 4.46172C3.88965 5.03379 3.88965 5.96124 4.46172 6.53331L11.5346 13.6062C12.1065 14.1782 13.0341 14.1783 13.6062 13.6062C14.1782 13.0341 14.1782 12.1066 13.6062 11.5346L6.5333 4.46172Z" fill="#2F3062"/>
<path d="M4.46172 45.5383C5.03369 46.1103 5.96123 46.1104 6.5333 45.5383L13.6062 38.4654C14.1782 37.8934 14.1782 36.9659 13.6062 36.3939C13.0342 35.8218 12.1066 35.8218 11.5346 36.3939L4.46172 43.4667C3.88965 44.0388 3.88965 44.9662 4.46172 45.5383Z" fill="#2F3062"/>
<path d="M45.5383 4.46172C44.9663 3.88965 44.0388 3.88965 43.4667 4.46172L36.3938 11.5346C35.8218 12.1066 35.8218 13.0341 36.3938 13.6062C36.9658 14.1782 37.8934 14.1783 38.4654 13.6062L45.5383 6.53331C46.1104 5.96124 46.1104 5.03379 45.5383 4.46172Z" fill="#2F3062"/>
<path d="M31.1663 39.8867C30.4188 40.1963 30.064 41.0532 30.3735 41.8007L31.4946 44.5073C31.8038 45.2536 32.6601 45.6101 33.4086 45.3001C34.1561 44.9905 34.5109 44.1336 34.2014 43.3861L33.0803 40.6795C32.7706 39.932 31.9138 39.5772 31.1663 39.8867Z" fill="#2F3062"/>
<path d="M18.8337 10.1133C19.5812 9.80371 19.9361 8.94678 19.6265 8.19932L18.5054 5.49267C18.1957 4.74521 17.3389 4.39043 16.5914 4.6999C15.844 5.00947 15.4891 5.8664 15.7986 6.61386L16.9197 9.32051C17.229 10.0668 18.0852 10.4233 18.8337 10.1133Z" fill="#2F3062"/>
<path d="M8.19933 30.3734L5.49268 31.4945C4.74522 31.8041 4.39034 32.661 4.69991 33.4085C5.00909 34.1548 5.86534 34.5113 6.61387 34.2013L9.32052 33.0802C10.068 32.7706 10.4229 31.9137 10.1133 31.1662C9.80372 30.4189 8.94688 30.0641 8.19933 30.3734Z" fill="#2F3062"/>
<path d="M41.8007 19.6266L44.5073 18.5055C45.2548 18.1959 45.6097 17.339 45.3001 16.5915C44.9905 15.844 44.1337 15.4893 43.3861 15.7987L40.6795 16.9198C39.932 17.2294 39.5771 18.0863 39.8867 18.8338C40.1959 19.5801 41.0521 19.9365 41.8007 19.6266Z" fill="#2F3062"/>
<path d="M16.9198 40.6795L15.7987 43.3861C15.4891 44.1336 15.844 44.9904 16.5915 45.3001C17.342 45.6108 18.1971 45.2518 18.5055 44.5073L19.6266 41.8007C19.9361 41.0532 19.5812 40.1964 18.8338 39.8867C18.0862 39.5772 17.2294 39.932 16.9198 40.6795Z" fill="#2F3062"/>
<path d="M33.0802 9.32051L34.2013 6.61386C34.5108 5.8664 34.156 5.00957 33.4085 4.6999C32.661 4.39043 31.8042 4.74521 31.4945 5.49267L30.3734 8.19932C30.0639 8.94678 30.4187 9.80361 31.1662 10.1133C31.9167 10.424 32.7719 10.0649 33.0802 9.32051Z" fill="#2F3062"/>
<path d="M9.32052 16.9198L6.61387 15.7987C5.86641 15.4891 5.00958 15.844 4.69991 16.5915C4.39034 17.3389 4.74522 18.1958 5.49268 18.5054L8.19933 19.6265C8.94981 19.9373 9.80489 19.5782 10.1133 18.8338C10.4229 18.0863 10.068 17.2294 9.32052 16.9198Z" fill="#2F3062"/>
<path d="M44.5073 31.4946L41.8007 30.3735C41.0532 30.0641 40.1964 30.4188 39.8867 31.1663C39.5771 31.9138 39.932 32.7706 40.6795 33.0803L43.3861 34.2014C44.1366 34.5121 44.9917 34.153 45.3001 33.4086C45.6097 32.6611 45.2548 31.8042 44.5073 31.4946Z" fill="#2F3062"/>
<path d="M23.5352 42.5781V48.5352C23.5352 49.3441 24.191 50 25 50C25.809 50 26.4648 49.3441 26.4648 48.5352V42.5781C26.4648 41.7691 25.809 41.1133 25 41.1133C24.191 41.1133 23.5352 41.7691 23.5352 42.5781Z" fill="#2F3062"/>
<path d="M26.4648 7.42188V1.46484C26.4648 0.655859 25.809 0 25 0C24.191 0 23.5352 0.655859 23.5352 1.46484V7.42188C23.5352 8.23086 24.191 8.88672 25 8.88672C25.809 8.88672 26.4648 8.23086 26.4648 7.42188Z" fill="#2F3062"/>
<path d="M0 25C0 25.809 0.655859 26.4648 1.46484 26.4648H7.42188C8.23086 26.4648 8.88672 25.809 8.88672 25C8.88672 24.191 8.23086 23.5352 7.42188 23.5352H1.46484C0.655859 23.5352 0 24.191 0 25Z" fill="#2F3062"/>
<path d="M48.5352 23.5352H42.5781C41.7691 23.5352 41.1133 24.191 41.1133 25C41.1133 25.809 41.7691 26.4648 42.5781 26.4648H48.5352C49.3441 26.4648 50 25.809 50 25C50 24.191 49.3441 23.5352 48.5352 23.5352Z" fill="#2F3062"/>
</svg>
